<svg width="72" height="72" viewBox="0 0 72 72" fill="none" xmlns="http://www.w3.org/2000/svg">
<g filter="url(#filter0_i_12_2699)">
<circle cx="36" cy="36" r="34" fill="#CCCCCC" fill-opacity="0.2"/>
<g filter="url(#filter1_f_12_2699)">
<circle cx="36.0003" cy="36.0001" r="32.2105" fill="#D760C7"/>
</g>
<path d="M39.7 19.6404H48.9667C51.9333 19.6404 52.6667 20.3737 52.6667 23.307V30.157C52.6667 33.0904 51.9333 33.8237 48.9667 33.8237H39.7C36.7333 33.8237 36 33.0904 36 30.157V23.307C36 20.3737 36.7333 19.6404 39.7 19.6404Z" stroke="white" stroke-width="2.5" stroke-linecap="round" stroke-linejoin="round"/>
<path d="M19.3333 44.7405H35.9999" stroke="white" stroke-width="2.5" stroke-miterlimit="10" stroke-linecap="round" stroke-linejoin="round"/>
<path d="M23.0333 38.8071H32.2999C35.2666 38.8071 35.9999 39.5405 35.9999 42.4738V49.3238C35.9999 52.2571 35.2666 52.9905 32.2999 52.9905H23.0333C20.0666 52.9905 19.3333 52.2571 19.3333 49.3238V42.4738C19.3333 39.5405 20.0666 38.8071 23.0333 38.8071Z" stroke="white" stroke-width="2.5" stroke-linecap="round" stroke-linejoin="round"/>
<path d="M52.6667 41.3071C52.6667 47.7571 47.45 52.9738 41 52.9738L42.75 50.0571" stroke="white" stroke-width="2.5" stroke-linecap="round" stroke-linejoin="round"/>
<path d="M19.3333 31.307C19.3333 24.857 24.5499 19.6404 30.9999 19.6404L29.2499 22.557" stroke="white" stroke-width="2.5" stroke-linecap="round" stroke-linejoin="round"/>
</g>
<defs>
<filter id="filter0_i_12_2699" x="2" y="2" width="68" height="68" filterUnits="userSpaceOnUse" color-interpolation-filters="sRGB">
<feFlood flood-opacity="0" result="BackgroundImageFix"/>
<feBlend mode="normal" in="SourceGraphic" in2="BackgroundImageFix" result="shape"/>
<feColorMatrix in="SourceAlpha" type="matrix" values="0 0 0 0 0 0 0 0 0 0 0 0 0 0 0 0 0 0 127 0" result="hardAlpha"/>
<feOffset/>
<feGaussianBlur stdDeviation="2"/>
<feComposite in2="hardAlpha" operator="arithmetic" k2="-1" k3="1"/>
<feColorMatrix type="matrix" values="0 0 0 0 0.843137 0 0 0 0 0.376471 0 0 0 0 0.780392 0 0 0 0.6 0"/>
<feBlend mode="normal" in2="shape" result="effect1_innerShadow_12_2699"/>
</filter>
<filter id="filter1_f_12_2699" x="0.789795" y="0.789551" width="70.4211" height="70.4211" filterUnits="userSpaceOnUse" color-interpolation-filters="sRGB">
<feFlood flood-opacity="0" result="BackgroundImageFix"/>
<feBlend mode="normal" in="SourceGraphic" in2="BackgroundImageFix" result="shape"/>
<feGaussianBlur stdDeviation="1.5" result="effect1_foregroundBlur_12_2699"/>
</filter>
</defs>
</svg>
