<svg width="68" height="68" viewBox="0 0 68 68" fill="none" xmlns="http://www.w3.org/2000/svg">
<circle cx="34" cy="34" r="34" fill="#CCCCCC"/>
<circle cx="34.0003" cy="34.0001" r="32.2105" fill="white"/>
<path d="M50.6667 28.507V20.9404C50.6667 18.5904 49.6 17.6404 46.95 17.6404H40.2167C37.5667 17.6404 36.5 18.5904 36.5 20.9404V28.4904C36.5 30.857 37.5667 31.7904 40.2167 31.7904H46.95C49.6 31.807 50.6667 30.857 50.6667 28.507Z" stroke="#D760C7" stroke-width="2.5" stroke-linecap="round" stroke-linejoin="round"/>
<path d="M50.6667 47.2571V40.5238C50.6667 37.8738 49.6 36.8071 46.95 36.8071H40.2167C37.5667 36.8071 36.5 37.8738 36.5 40.5238V47.2571C36.5 49.9071 37.5667 50.9738 40.2167 50.9738H46.95C49.6 50.9738 50.6667 49.9071 50.6667 47.2571Z" stroke="#D760C7" stroke-width="2.5" stroke-linecap="round" stroke-linejoin="round"/>
<path d="M31.4999 28.507V20.9404C31.4999 18.5904 30.4333 17.6404 27.7833 17.6404H21.0499C18.3999 17.6404 17.3333 18.5904 17.3333 20.9404V28.4904C17.3333 30.857 18.3999 31.7904 21.0499 31.7904H27.7833C30.4333 31.807 31.4999 30.857 31.4999 28.507Z" stroke="#D760C7" stroke-width="2.5" stroke-linecap="round" stroke-linejoin="round"/>
<path d="M31.4999 47.2571V40.5238C31.4999 37.8738 30.4333 36.8071 27.7833 36.8071H21.0499C18.3999 36.8071 17.3333 37.8738 17.3333 40.5238V47.2571C17.3333 49.9071 18.3999 50.9738 21.0499 50.9738H27.7833C30.4333 50.9738 31.4999 49.9071 31.4999 47.2571Z" stroke="#D760C7" stroke-width="2.5" stroke-linecap="round" stroke-linejoin="round"/>
</svg>
