<svg width="68" height="68" viewBox="0 0 68 68" fill="none" xmlns="http://www.w3.org/2000/svg">
<circle cx="34" cy="34" r="34" fill="#CCCCCC"/>
<circle cx="34.0003" cy="34.0001" r="32.2105" fill="white"/>
<path d="M50.6666 34.0001V42.3334C50.6666 47.3334 47.3333 50.6667 42.3333 50.6667H25.6666C20.6666 50.6667 17.3333 47.3334 17.3333 42.3334V34.0001C17.3333 29.4667 20.0666 26.3001 24.3166 25.7667C24.7499 25.7001 25.1999 25.6667 25.6666 25.6667H42.3333C42.7666 25.6667 43.1833 25.6834 43.5833 25.7501C47.8833 26.2501 50.6666 29.4334 50.6666 34.0001Z" stroke="#D760C7" stroke-width="2.5" stroke-linecap="round" stroke-linejoin="round"/>
<path d="M43.5858 25.7499C43.1858 25.6833 42.7691 25.6666 42.3358 25.6666H25.6691C25.2024 25.6666 24.7524 25.6999 24.3191 25.7666C24.5524 25.2999 24.8858 24.8666 25.2858 24.4666L30.7024 19.0333C32.9858 16.7666 36.6858 16.7666 38.9691 19.0333L41.8858 21.9833C42.9524 23.0333 43.5191 24.3666 43.5858 25.7499Z" stroke="#D760C7" stroke-width="2.5" stroke-linecap="round" stroke-linejoin="round"/>
<path d="M50.6666 34.8333H45.6666C43.8333 34.8333 42.3333 36.3333 42.3333 38.1666C42.3333 39.9999 43.8333 41.4999 45.6666 41.4999H50.6666" stroke="#D760C7" stroke-width="2.5" stroke-linecap="round" stroke-linejoin="round"/>
</svg>
