<svg width="68" height="68" viewBox="0 0 68 68" fill="none" xmlns="http://www.w3.org/2000/svg">
<circle cx="34" cy="34" r="34" fill="#CCCCCC"/>
<circle cx="34.0015" cy="34.0001" r="32.2105" fill="white"/>
<path d="M29.8333 37.2237C29.8333 38.8403 31.0833 40.1403 32.6166 40.1403H35.7499C37.0832 40.1403 38.1666 39.007 38.1666 37.5903C38.1666 36.0737 37.4999 35.5237 36.5166 35.1737L31.4999 33.4237C30.5166 33.0737 29.8499 32.5404 29.8499 31.007C29.8499 29.607 30.9332 28.457 32.2666 28.457H35.3999C36.9332 28.457 38.1833 29.757 38.1833 31.3737" stroke="#D760C7" stroke-width="2.5" stroke-linecap="round" stroke-linejoin="round"/>
<path d="M34 26.8071V41.8071" stroke="#D760C7" stroke-width="2.49999" stroke-linecap="round" stroke-linejoin="round"/>
<path d="M50.6665 34.307C50.6665 43.507 43.1999 50.9736 33.9999 50.9736C24.7999 50.9736 17.3333 43.507 17.3333 34.307C17.3333 25.107 24.7999 17.6404 33.9999 17.6404" stroke="#D760C7" stroke-width="2.49999" stroke-linecap="round" stroke-linejoin="round"/>
<path d="M50.6667 24.307V17.6404H44" stroke="#D760C7" stroke-width="2.49999" stroke-linecap="round" stroke-linejoin="round"/>
<path d="M42.3333 25.9737L50.6666 17.6404" stroke="#D760C7" stroke-width="2.49999" stroke-linecap="round" stroke-linejoin="round"/>
</svg>
