<svg width="32" height="33" viewBox="0 0 32 33" fill="none" xmlns="http://www.w3.org/2000/svg">
<path d="M16 3.43457C13.4288 3.43457 10.9154 4.19701 8.77759 5.62547C6.63975 7.05392 4.97351 9.08425 3.98957 11.4597C3.00563 13.8351 2.74819 16.449 3.2498 18.9707C3.75141 21.4925 4.98953 23.8089 6.80762 25.627C8.6257 27.445 10.9421 28.6832 13.4638 29.1848C15.9856 29.6864 18.5995 29.4289 20.9749 28.445C23.3503 27.4611 25.3807 25.7948 26.8091 23.657C28.2376 21.5191 29 19.0057 29 16.4346C28.9964 12.9879 27.6256 9.68339 25.1884 7.2462C22.7512 4.80902 19.4467 3.43821 16 3.43457ZM17 27.3883V19.4346H20C20.2652 19.4346 20.5196 19.3292 20.7071 19.1417C20.8946 18.9541 21 18.6998 21 18.4346C21 18.1694 20.8946 17.915 20.7071 17.7275C20.5196 17.5399 20.2652 17.4346 20 17.4346H17V14.4346C17 13.9041 17.2107 13.3954 17.5858 13.0204C17.9609 12.6453 18.4696 12.4346 19 12.4346H21C21.2652 12.4346 21.5196 12.3292 21.7071 12.1417C21.8946 11.9541 22 11.6998 22 11.4346C22 11.1694 21.8946 10.915 21.7071 10.7275C21.5196 10.5399 21.2652 10.4346 21 10.4346H19C17.9391 10.4346 16.9217 10.856 16.1716 11.6061C15.4214 12.3563 15 13.3737 15 14.4346V17.4346H12C11.7348 17.4346 11.4804 17.5399 11.2929 17.7275C11.1054 17.915 11 18.1694 11 18.4346C11 18.6998 11.1054 18.9541 11.2929 19.1417C11.4804 19.3292 11.7348 19.4346 12 19.4346H15V27.3883C12.181 27.131 9.56971 25.7968 7.7093 23.6633C5.8489 21.5298 4.8826 18.7611 5.0114 15.9334C5.1402 13.1056 6.35419 10.4363 8.40085 8.4807C10.4475 6.52515 13.1693 5.43387 16 5.43387C18.8307 5.43387 21.5525 6.52515 23.5992 8.4807C25.6458 10.4363 26.8598 13.1056 26.9886 15.9334C27.1174 18.7611 26.1511 21.5298 24.2907 23.6633C22.4303 25.7968 19.819 27.131 17 27.3883Z" fill="white" fill-opacity="0.9"/>
</svg>
