<svg width="32" height="33" viewBox="0 0 32 33" fill="none" xmlns="http://www.w3.org/2000/svg">
<path d="M16 10.4346C14.8133 10.4346 13.6533 10.7865 12.6666 11.4458C11.6799 12.105 10.9108 13.0421 10.4567 14.1385C10.0026 15.2348 9.88378 16.4412 10.1153 17.6051C10.3468 18.769 10.9182 19.8381 11.7574 20.6772C12.5965 21.5163 13.6656 22.0878 14.8295 22.3193C15.9933 22.5508 17.1997 22.432 18.2961 21.9778C19.3925 21.5237 20.3295 20.7547 20.9888 19.768C21.6481 18.7813 22 17.6213 22 16.4346C21.9983 14.8438 21.3657 13.3186 20.2408 12.1938C19.116 11.0689 17.5908 10.4362 16 10.4346ZM16 20.4346C15.2089 20.4346 14.4355 20.2 13.7777 19.7604C13.1199 19.3209 12.6072 18.6962 12.3045 17.9653C12.0017 17.2344 11.9225 16.4301 12.0769 15.6542C12.2312 14.8783 12.6122 14.1656 13.1716 13.6061C13.731 13.0467 14.4437 12.6658 15.2196 12.5114C15.9956 12.3571 16.7998 12.4363 17.5307 12.7391C18.2616 13.0418 18.8864 13.5545 19.3259 14.2123C19.7654 14.8701 20 15.6434 20 16.4346C20 17.4954 19.5786 18.5129 18.8284 19.263C18.0783 20.0131 17.0609 20.4346 16 20.4346ZM22 3.43457H10C8.14409 3.43656 6.36477 4.17469 5.05245 5.48702C3.74012 6.79934 3.00199 8.57866 3 10.4346V22.4346C3.00199 24.2905 3.74012 26.0698 5.05245 27.3821C6.36477 28.6945 8.14409 29.4326 10 29.4346H22C23.8559 29.4326 25.6352 28.6945 26.9476 27.3821C28.2599 26.0698 28.998 24.2905 29 22.4346V10.4346C28.998 8.57866 28.2599 6.79934 26.9476 5.48702C25.6352 4.17469 23.8559 3.43656 22 3.43457ZM27 22.4346C27 23.7607 26.4732 25.0324 25.5355 25.9701C24.5979 26.9078 23.3261 27.4346 22 27.4346H10C8.67392 27.4346 7.40215 26.9078 6.46447 25.9701C5.52678 25.0324 5 23.7607 5 22.4346V10.4346C5 9.10849 5.52678 7.83672 6.46447 6.89904C7.40215 5.96135 8.67392 5.43457 10 5.43457H22C23.3261 5.43457 24.5979 5.96135 25.5355 6.89904C26.4732 7.83672 27 9.10849 27 10.4346V22.4346ZM24 9.93457C24 10.2312 23.912 10.5213 23.7472 10.7679C23.5824 11.0146 23.3481 11.2069 23.074 11.3204C22.7999 11.4339 22.4983 11.4636 22.2074 11.4057C21.9164 11.3479 21.6491 11.205 21.4393 10.9952C21.2296 10.7855 21.0867 10.5182 21.0288 10.2272C20.9709 9.93623 21.0007 9.63463 21.1142 9.36055C21.2277 9.08646 21.42 8.85219 21.6666 8.68737C21.9133 8.52254 22.2033 8.43457 22.5 8.43457C22.8978 8.43457 23.2794 8.59261 23.5607 8.87391C23.842 9.15521 24 9.53675 24 9.93457Z" fill="white" fill-opacity="0.9"/>
</svg>
