<svg width="32" height="33" viewBox="0 0 32 33" fill="none" xmlns="http://www.w3.org/2000/svg">
<path d="M27 3.43457H5C4.46957 3.43457 3.96086 3.64528 3.58579 4.02036C3.21071 4.39543 3 4.90414 3 5.43457V27.4346C3 27.965 3.21071 28.4737 3.58579 28.8488C3.96086 29.2239 4.46957 29.4346 5 29.4346H27C27.5304 29.4346 28.0391 29.2239 28.4142 28.8488C28.7893 28.4737 29 27.965 29 27.4346V5.43457C29 4.90414 28.7893 4.39543 28.4142 4.02036C28.0391 3.64528 27.5304 3.43457 27 3.43457ZM27 27.4346H5V5.43457H27V27.4346ZM12 14.4346V22.4346C12 22.6998 11.8946 22.9541 11.7071 23.1417C11.5196 23.3292 11.2652 23.4346 11 23.4346C10.7348 23.4346 10.4804 23.3292 10.2929 23.1417C10.1054 22.9541 10 22.6998 10 22.4346V14.4346C10 14.1694 10.1054 13.915 10.2929 13.7275C10.4804 13.5399 10.7348 13.4346 11 13.4346C11.2652 13.4346 11.5196 13.5399 11.7071 13.7275C11.8946 13.915 12 14.1694 12 14.4346ZM23 17.9346V22.4346C23 22.6998 22.8946 22.9541 22.7071 23.1417C22.5196 23.3292 22.2652 23.4346 22 23.4346C21.7348 23.4346 21.4804 23.3292 21.2929 23.1417C21.1054 22.9541 21 22.6998 21 22.4346V17.9346C21 17.2715 20.7366 16.6356 20.2678 16.1668C19.7989 15.698 19.163 15.4346 18.5 15.4346C17.837 15.4346 17.2011 15.698 16.7322 16.1668C16.2634 16.6356 16 17.2715 16 17.9346V22.4346C16 22.6998 15.8946 22.9541 15.7071 23.1417C15.5196 23.3292 15.2652 23.4346 15 23.4346C14.7348 23.4346 14.4804 23.3292 14.2929 23.1417C14.1054 22.9541 14 22.6998 14 22.4346V14.4346C14.0012 14.1896 14.0923 13.9537 14.256 13.7714C14.4197 13.5892 14.6446 13.4734 14.888 13.4459C15.1314 13.4185 15.3764 13.4813 15.5765 13.6226C15.7767 13.7638 15.918 13.9735 15.9738 14.2121C16.6502 13.7532 17.4389 13.4872 18.2552 13.4427C19.0714 13.3982 19.8844 13.577 20.6067 13.9596C21.329 14.3423 21.9335 14.9146 22.3551 15.6149C22.7768 16.3152 22.9997 17.1171 23 17.9346ZM12.5 10.9346C12.5 11.2312 12.412 11.5213 12.2472 11.7679C12.0824 12.0146 11.8481 12.2069 11.574 12.3204C11.2999 12.4339 10.9983 12.4636 10.7074 12.4057C10.4164 12.3479 10.1491 12.205 9.93934 11.9952C9.72956 11.7855 9.5867 11.5182 9.52882 11.2272C9.47094 10.9362 9.50065 10.6346 9.61418 10.3605C9.72771 10.0865 9.91997 9.85219 10.1666 9.68737C10.4133 9.52254 10.7033 9.43457 11 9.43457C11.3978 9.43457 11.7794 9.59261 12.0607 9.87391C12.342 10.1552 12.5 10.5367 12.5 10.9346Z" fill="white" fill-opacity="0.9"/>
</svg>
