<svg width="32" height="33" viewBox="0 0 32 33" fill="none" xmlns="http://www.w3.org/2000/svg">
<path d="M30.9237 9.05209C30.8481 8.86935 30.72 8.71314 30.5555 8.60323C30.3911 8.49332 30.1978 8.43463 30 8.43459H26.1963C25.6644 7.52981 24.9076 6.77803 23.9992 6.25234C23.0909 5.72665 22.0619 5.44494 21.0125 5.43459C20.2306 5.42433 19.4546 5.57055 18.7301 5.86465C18.0056 6.15875 17.3472 6.59478 16.7937 7.14709C16.2241 7.70612 15.7719 8.3734 15.4639 9.10969C15.1559 9.84599 14.9981 10.6364 15 11.4346V12.1958C9.9675 10.8683 5.85125 6.77459 5.8075 6.73084C5.67334 6.59549 5.5033 6.50129 5.3174 6.45935C5.1315 6.4174 4.93748 6.42944 4.7582 6.49406C4.57891 6.55868 4.42183 6.67319 4.30544 6.82409C4.18905 6.975 4.11821 7.15602 4.10125 7.34584C3.5625 13.3196 5.2975 17.3171 6.85125 19.6183C7.60885 20.756 8.53048 21.7753 9.58625 22.6433C7.6825 24.8346 4.685 25.9858 4.6525 25.9983C4.51139 26.0512 4.38405 26.1352 4.27999 26.2442C4.17594 26.3532 4.09785 26.4843 4.05158 26.6277C4.0053 26.7711 3.99203 26.9231 4.01275 27.0723C4.03347 27.2216 4.08765 27.3642 4.17125 27.4896C4.265 27.6296 4.64 28.1208 5.55625 28.5796C6.68875 29.1471 8.185 29.4346 10 29.4346C18.8337 29.4346 26.215 22.6321 26.9688 13.8796L30.7075 10.1421C30.8473 10.0022 30.9425 9.82391 30.981 9.62989C31.0195 9.43587 30.9995 9.23479 30.9237 9.05209ZM25.2987 12.7283C25.1273 12.9002 25.0242 13.1286 25.0088 13.3708C24.5 21.2571 17.91 27.4346 10 27.4346C8.68 27.4346 7.75 27.2596 7.0975 27.0496C8.53625 26.2683 10.5425 24.9246 11.8325 22.9896C11.9082 22.8758 11.9598 22.7477 11.9841 22.6132C12.0083 22.4787 12.0048 22.3407 11.9736 22.2076C11.9425 22.0745 11.8844 21.9493 11.8029 21.8395C11.7214 21.7298 11.6184 21.6379 11.5 21.5696C11.4412 21.5358 6.01125 18.2771 6 9.56959C8 11.1946 11.6562 13.7158 15.8337 14.4183C15.9769 14.4425 16.1236 14.4351 16.2637 14.3969C16.4037 14.3586 16.5338 14.2902 16.6448 14.1966C16.7558 14.103 16.845 13.9864 16.9064 13.8548C16.9677 13.7232 16.9997 13.5798 17 13.4346V11.4346C16.9989 10.9011 17.1045 10.3729 17.3105 9.88085C17.5166 9.38883 17.819 8.94299 18.2 8.56959C18.5652 8.20371 19 7.91475 19.4788 7.71981C19.9576 7.52486 20.4706 7.42788 20.9875 7.43459C22.57 7.45459 24.0487 8.41959 24.6675 9.83584C24.7455 10.0139 24.8737 10.1654 25.0364 10.2717C25.1992 10.378 25.3894 10.4346 25.5837 10.4346H27.5837L25.2987 12.7283Z" fill="white" fill-opacity="0.9"/>
</svg>
