<svg width="32" height="33" viewBox="0 0 32 33" fill="none" xmlns="http://www.w3.org/2000/svg">
<path d="M20.555 15.6021L14.555 11.6021C14.4044 11.5016 14.2293 11.4439 14.0484 11.4351C13.8675 11.4263 13.6877 11.4668 13.528 11.5523C13.3684 11.6378 13.2349 11.765 13.1419 11.9204C13.0489 12.0758 12.9999 12.2535 13 12.4346V20.4346C12.9999 20.6157 13.0489 20.7934 13.1419 20.9488C13.2349 21.1041 13.3684 21.2314 13.528 21.3168C13.6877 21.4023 13.8675 21.4428 14.0484 21.4341C14.2293 21.4253 14.4044 21.3676 14.555 21.2671L20.555 17.2671C20.6922 17.1758 20.8047 17.052 20.8825 16.9068C20.9603 16.7616 21.001 16.5993 21.001 16.4346C21.001 16.2698 20.9603 16.1076 20.8825 15.9624C20.8047 15.8171 20.6922 15.6934 20.555 15.6021ZM15 18.5658V14.3096L18.1975 16.4346L15 18.5658ZM29.2913 9.12457C29.1735 8.66376 28.9478 8.23755 28.6329 7.88111C28.318 7.52468 27.9228 7.24823 27.48 7.07457C23.195 5.41957 16.375 5.43458 16 5.43458C15.625 5.43458 8.805 5.41957 4.52 7.07457C4.0772 7.24823 3.68204 7.52468 3.36712 7.88111C3.05219 8.23755 2.82653 8.66376 2.70875 9.12457C2.385 10.3721 2 12.6521 2 16.4346C2 20.2171 2.385 22.4971 2.70875 23.7446C2.82636 24.2056 3.05194 24.6321 3.36687 24.9887C3.68181 25.3454 4.07706 25.622 4.52 25.7958C8.625 27.3796 15.05 27.4346 15.9175 27.4346H16.0825C16.95 27.4346 23.3787 27.3796 27.48 25.7958C27.9229 25.622 28.3182 25.3454 28.6331 24.9887C28.9481 24.6321 29.1736 24.2056 29.2913 23.7446C29.615 22.4946 30 20.2171 30 16.4346C30 12.6521 29.615 10.3721 29.2913 9.12457ZM27.355 23.2496C27.3169 23.4029 27.243 23.5451 27.1394 23.6644C27.0357 23.7837 26.9053 23.8767 26.7588 23.9358C22.8025 25.4633 16.0738 25.4358 16.0088 25.4358H16C15.9325 25.4358 9.20875 25.4608 5.25 23.9358C5.10346 23.8767 4.97303 23.7837 4.86938 23.6644C4.76574 23.5451 4.69184 23.4029 4.65375 23.2496C4.35 22.1083 4 20.0058 4 16.4346C4 12.8633 4.35 10.7608 4.645 9.62582C4.68239 9.47155 4.75596 9.32839 4.85965 9.20819C4.96333 9.08799 5.09413 8.9942 5.24125 8.93458C9.05625 7.46082 15.4487 7.43458 15.9725 7.43458H16.0063C16.0738 7.43458 22.8038 7.41208 26.7563 8.93458C26.9028 8.99372 27.0332 9.08674 27.1369 9.20603C27.2405 9.32531 27.3144 9.46746 27.3525 9.62082C27.65 10.7608 28 12.8633 28 16.4346C28 20.0058 27.65 22.1083 27.355 23.2433V23.2496Z" fill="white" fill-opacity="0.9"/>
</svg>
